#!OML:ASF X:\für Bonn\!DataBase\2005_08_11_Bastian_Final\c3d\Bastian.ASF
:FULLY-SPECIFIED
:DEGREES
103
root 2.42424 18.0502 -24.2328 541.129 -187.792 -182.272
lowerback 12.3401 -1.89069 3.23991
upperback 4.1502 -2.09539 0.0755706
thorax -2.67541 -1.02705 -1.44329
lowerneck -8.18175 -5.02307 -1.49988
upperneck -8.33291 -6.2546 8.20593
head -0.91157 -3.14649 2.75143
rclavicle 2.89232e-014 -1.09332e-014
rhumerus -49.7713 -3.95287 -83.5918
rradius 28.0358
rwrist -1.5116
rhand -24.6459 12.5799
rfingers 7.12502
rthumb 1.85354 -17.3917
lclavicle 2.89232e-014 -1.09332e-014
lhumerus -43.9272 19.2059 66.8575
lradius 34.331
lwrist -175.584
lhand -24.1787 2.88133
lfingers 7.12502
lthumb 2.30476 32.8486
rfemur -32.4363 -5.67868 20.2749
rtibia 49.9152
rfoot -32.2591 -3.35039
rtoes -19.6653
lfemur -27.0873 4.24758 -18.3758
ltibia 45.7034
lfoot 0.535393 -9.34877
ltoes -37.1797
104
root 2.4259 17.7336 -23.9951 541.274 -187.618 -182.073
lowerback 11.7782 -1.8474 3.06599
upperback 4.19398 -2.08294 0.0421127
thorax -2.31927 -1.01697 -1.39887
lowerneck -8.17388 -4.9693 -1.50322
upperneck -9.08815 -6.13358 8.26763
head -1.16032 -3.10309 2.79568
rclavicle -2.68359e-015 -2.70347e-014
rhumerus -49.6132 -4.66888 -83.0326
rradius 26.7069
rwrist -1.25268
rhand -24.7043 11.7577
rfingers 7.12502
rthumb 1.79714 -18.2145
lclavicle -2.68359e-015 -2.70347e-014
lhumerus -44.592 21.6997 64.9978
lradius 32.2659
lwrist -176.06
lhand -23.8745 1.8649
lfingers 7.12502
lthumb 2.59854 31.8288
rfemur -33.3464 -5.48996 20.0237
rtibia 50.7588
rfoot -31.7066 -3.3833
rtoes -22.1966
lfemur -27.2653 3.94271 -18.4972
ltibia 47.0361
lfoot -2.2235 -9.33861
ltoes -33.3644
105
root 2.42659 17.4177 -23.769 541.207 -187.406 -181.705
lowerback 11.5874 -1.7835 2.74991
upperback 4.29926 -2.04598 -0.0796382
thorax -2.09843 -0.996085 -1.35998
lowerneck -8.25971 -4.9312 -1.43551
upperneck -9.78651 -6.04094 8.3407
head -1.37709 -3.07317 2.82724
rclavicle 2.10712e-014 3.77691e-015
rhumerus -49.3609 -5.52226 -82.4634
rradius 25.5962
rwrist -0.697337
rhand -24.7892 10.6924
rfingers 7.12502
rthumb 1.71521 -19.2804
lclavicle 2.10712e-014 3.77691e-015
lhumerus -45.2171 24.1297 63.058
lradius 30.355
lwrist -176.458
lhand -23.3167 1.56966
lfingers 7.12502
lthumb 3.13726 31.5263
rfemur -34.2687 -5.40274 19.5894
rtibia 52.1262
rfoot -30.6194 -3.1177
rtoes -23.9933
lfemur -27.3493 3.64991 -18.7932
ltibia 48.8916
lfoot -5.59256 -9.43225
ltoes -27.4409
106
root 2.42641 17.1079 -23.5538 540.697 -187.214 -181.556
lowerback 12.0441 -1.76165 2.64214
upperback 4.43037 -2.01735 -0.141923
thorax -2.20749 -0.981631 -1.35783
lowerneck -8.24891 -4.89259 -1.44855
upperneck -10.4627 -5.93962 8.47097
head -1.60083 -3.03861 2.89617
rclavicle 3.12092e-014 1.15295e-014
rhumerus -49.2187 -6.38433 -81.8639
rradius 24.7788
rwrist 0.0674524
rhand -24.9356 9.94698
rfingers 7.12502
rthumb 1.57381 -20.027
lclavicle 3.12092e-014 1.15295e-014
lhumerus -45.8598 26.4086 61.2169
lradius 28.6017
lwrist -176.549
lhand -22.7143 2.04618
lfingers 7.12502
lthumb 3.71898 31.9935
rfemur -34.8948 -5.40659 19.3938
rtibia 53.9177
rfoot -29.1943 -2.75479
rtoes -25.5668
lfemur -27.2192 3.34403 -18.8178
ltibia 51.3783
lfoot -9.45652 -9.70922
ltoes -20.9004
107
root 2.42489 16.8053 -23.3506 540.3 -187.029 -181.679
lowerback 12.4613 -1.75774 2.80896
upperback 4.52941 -1.97945 -0.124937
thorax -2.33312 -0.962024 -1.42995
lowerneck -8.29392 -4.86308 -1.45155
upperneck -11.136 -5.85212 8.57548
head -1.81666 -3.01004 2.95373
rclavicle -1.70955e-014 5.76476e-015
rhumerus -48.8758 -7.06833 -81.4314
rradius 24.0065
rwrist 0.568128
rhand -25.1128 9.71101
rfingers 7.12502
rthumb 1.4026 -20.2641
lclavicle -1.70955e-014 5.76476e-015
lhumerus -46.3548 28.6984 59.4806
lradius 27.0249
lwrist -176.674
lhand -22.157 2.53979
lfingers 7.12502
lthumb 4.25716 32.477
rfemur -35.801 -5.42147 19.5372
rtibia 56.0681
rfoot -27.4999 -2.11973
rtoes -25.7163
lfemur -27.5037 3.12482 -18.5398
ltibia 54.5202
lfoot -13.7551 -10.1677
ltoes -15.4487
108
root 2.42236 16.5013 -23.16 540.187 -186.86 -181.964
lowerback 12.7758 -1.76886 3.19175
upperback 4.49611 -1.93498 -0.0854459
thorax -2.54605 -0.941151 -1.60206
lowerneck -8.22388 -4.83342 -1.42744
upperneck -11.9096 -5.75782 8.69123
head -2.08873 -2.98412 3.01879
rclavicle 3.97569e-016 -1.98785e-016
rhumerus -48.2721 -7.73275 -81.1187
rradius 23.0773
rwrist 0.904098
rhand -25.1963 9.52061
rfingers 7.12502
rthumb 1.32202 -20.455
lclavicle 3.97569e-016 -1.98785e-016
lhumerus -46.4998 30.538 58.2741
lradius 25.8244
lwrist -176.572
lhand -21.522 2.40629
lfingers 7.12502
lthumb 4.87034 32.3303
rfemur -37.1464 -5.47021 19.9098
rtibia 58.58
rfoot -25.8751 -1.46316
rtoes -25.3172
lfemur -28.2823 2.90874 -18.0927
ltibia 58.1498
lfoot -18.072 -10.6158
ltoes -10.7379
109
root 2.41763 16.1912 -22.9814 540.312 -186.719 -182.139
lowerback 13.0322 -1.77554 3.42966
upperback 4.39657 -1.9009 -0.0378283
thorax -2.79241 -0.928156 -1.68345
lowerneck -8.21671 -4.7956 -1.40773
upperneck -12.6938 -5.65627 8.73531
head -2.35909 -2.95225 3.06037
rclavicle 4.35835e-014 -2.5842e-015
rhumerus -47.3778 -8.25829 -80.9747
rradius 22.1219
rwrist 1.13363
rhand -25.709 9.92894
rfingers 7.12502
rthumb 0.826824 -20.0492
lclavicle 4.35835e-014 -2.5842e-015
lhumerus -46.2881 32.2929 57.4888
lradius 24.9185
lwrist -176.657
lhand -21.1869 2.62246
lfingers 7.12502
lthumb 5.1939 32.5388
rfemur -38.8403 -5.54838 20.2102
rtibia 61.4487
rfoot -24.6209 -0.68336
rtoes -23.9264
lfemur -29.4292 2.7739 -17.7847
ltibia 62.0151
lfoot -22.0577 -11.0519
ltoes -8.4253
110
root 2.41153 15.9071 -22.8099 540.365 -186.569 -182.103
lowerback 13.5221 -1.75943 3.47872
upperback 4.29004 -1.85261 -0.07808
thorax -3.16921 -0.910493 -1.74719
lowerneck -8.10713 -4.77662 -1.31249
upperneck -13.61 -5.57942 8.73111
head -2.698 -2.93991 3.08155
rclavicle -2.40032e-014 -6.16232e-015
rhumerus -46.5085 -8.43211 -81.2463
rradius 21.6166
rwrist 0.94726
rhand -26.6516 11.7291
rfingers 7.12502
rthumb -0.0835807 -18.2506
lclavicle -2.40032e-014 -6.16232e-015
lhumerus -45.6344 33.6635 57.2522
lradius 24.3562
lwrist -176.931
lhand -21.1457 3.54476
lfingers 7.12502
lthumb 5.23365 33.4601
rfemur -40.5208 -5.6801 20.2767
rtibia 64.6435
rfoot -23.9751 -0.0837207
rtoes -22.4657
lfemur -30.4095 2.68076 -17.7213
ltibia 65.7503
lfoot -25.6136 -11.3272
ltoes -6.89426
111
root 2.40488 15.6475 -22.6363 540.163 -186.445 -182.058
lowerback 14.2153 -1.77694 3.50585
upperback 4.34666 -1.84528 -0.126999
thorax -3.48612 -0.909919 -1.79938
lowerneck -8.17046 -4.71971 -1.10342
upperneck -14.5841 -5.46619 8.60675
head -3.04013 -2.90994 3.04
rclavicle 1.30701e-014 2.5842e-015
rhumerus -45.3345 -8.35031 -81.8122
rradius 21.4666
rwrist 0.61426
rhand -27.1783 12.9435
rfingers 7.12502
rthumb -0.592258 -17.0355
lclavicle 1.30701e-014 2.5842e-015
lhumerus -44.0705 34.4431 58.1169
lradius 24.2138
lwrist -177.25
lhand -21.0687 4.08047
lfingers 7.12502
lthumb 5.30802 33.994
rfemur -41.8012 -5.84242 20.2996
rtibia 67.9343
rfoot -23.6435 0.552721
rtoes -19.432
lfemur -30.9823 2.62003 -17.6655
ltibia 69.1822
lfoot -28.6556 -11.4322
ltoes -5.85563
112
root 2.3967 15.4063 -22.4537 539.705 -186.363 -182.031
lowerback 15.0644 -1.80551 3.51995
upperback 4.55995 -1.84914 -0.166626
thorax -3.72035 -0.911261 -1.83171
lowerneck -8.33328 -4.67701 -0.78418
upperneck -15.7136 -5.38739 8.32845
head -3.43043 -2.9001 2.93026
rclavicle -3.04638e-014 1.07344e-014
rhumerus -43.8002 -7.97849 -82.6615
rradius 21.6718
rwrist 0.052425
rhand -27.4289 13.3252
rfingers 7.12502
rthumb -0.834368 -16.6529
lclavicle -3.04638e-014 1.07344e-014
lhumerus -41.5062 34.4177 60.158
lradius 24.3376
lwrist -176.612
lhand -20.778 3.72739
lfingers 7.12502
lthumb 5.58871 33.6337
rfemur -42.5675 -6.04258 20.3257
rtibia 71.1277
rfoot -23.9226 1.01835
rtoes -15.889
lfemur -31.0308 2.55665 -17.5483
ltibia 72.231
lfoot -31.2933 -11.6525
ltoes -4.62513
113
root 2.38795 15.1906 -22.2646 539.077 -186.297 -182.081
lowerback 16.0193 -1.85904 3.61247
upperback 4.82166 -1.86861 -0.192885
thorax -3.95961 -0.919607 -1.8899
lowerneck -8.8435 -4.6481 -0.696171
upperneck -16.3755 -5.31401 8.383
head -3.58268 -2.87429 2.94506
rclavicle -2.7482e-014 -5.96354e-016
rhumerus -42.0786 -7.44889 -83.6182
rradius 22.2334
rwrist -0.482298
rhand -27.306 12.8162
rfingers 7.12502
rthumb -0.715625 -17.1623
lclavicle -2.7482e-014 -5.96354e-016
lhumerus -38.3683 33.4279 62.9886
lradius 24.8086
lwrist -175.182
lhand -20.5086 2.36382
lfingers 7.12502
lthumb 5.84875 32.2631
rfemur -42.8429 -6.24882 20.4027
rtibia 74.0257
rfoot -24.5476 1.39698
rtoes -12.3524
lfemur -30.6457 2.52433 -17.3165
ltibia 74.8751
lfoot -33.6144 -11.94
ltoes -3.54735
114
root 2.37805 15.0018 -22.0761 538.569 -186.247 -182.118
lowerback 16.8949 -1.91134 3.66833
upperback 4.97918 -1.89226 -0.209722
thorax -4.26259 -0.932468 -1.91684
lowerneck -9.53345 -4.64599 -0.834988
upperneck -16.5748 -5.26195 8.71764
head -3.52418 -2.84129 3.07116
rclavicle -5.56597e-015 2.38542e-015
rhumerus -40.3955 -6.57153 -84.6863
rradius 23.2543
rwrist -1.20495
rhand -26.681 11.4821
rfingers 7.12502
rthumb -0.111968 -18.4976
lclavicle -5.56597e-015 2.38542e-015
lhumerus -35.2506 31.6794 65.9519
lradius 25.6005
lwrist -173.457
lhand -20.8071 2.60132
lfingers 7.12502
lthumb 5.56058 32.5084
rfemur -42.9586 -6.44897 20.4673
rtibia 76.5474
rfoot -25.5515 1.6696
rtoes -9.72783
lfemur -30.2276 2.51657 -17.0928
ltibia 77.1533
lfoot -35.6615 -12.2196
ltoes -2.8424
115
root 2.36755 14.8442 -21.8868 538.141 -186.226 -182.152
lowerback 17.792 -1.98163 3.75557
upperback 4.93673 -1.93125 -0.263781
thorax -4.79087 -0.95934 -1.99406
lowerneck -9.757 -4.62272 -0.880025
upperneck -16.8167 -5.19242 8.92219
head -3.57044 -2.81044 3.15453
rclavicle 1.55052e-014 5.56597e-015
rhumerus -39.1198 -5.5329 -85.76
rradius 24.8328
rwrist -1.98104
rhand -26.3165 11.5073
rfingers 7.12502
rthumb 0.240068 -18.4723
lclavicle 1.55052e-014 5.56597e-015
lhumerus -32.5882 29.4013 68.4972
lradius 26.8068
lwrist -171.36
lhand -21.7395 3.85862
lfingers 7.12502
lthumb 4.66029 33.7874
rfemur -42.8463 -6.71552 20.5339
rtibia 78.6338
rfoot -26.8389 1.88481
rtoes -8.78899
lfemur -29.7476 2.52658 -16.8631
ltibia 79.091
lfoot -37.4729 -12.3855
ltoes -2.89629
